<svg xmlns="http://www.w3.org/2000/svg" viewBox="0 0 96 96"><rect width="96" height="96" rx="22" fill="#17171e"/><circle cx="48" cy="46" r="34" fill="#e9977b"/><g transform="translate(16 10)"><path d="M7 65V32L2 35 18 18l13 14v33M27 65V23h10v42M24 23l8-17 8 17M37 65V38l-3 3 14-18 14 18-4-3v27" fill="#151219" stroke="#151219" stroke-width="2" stroke-linejoin="round"/><path d="M13 41h5v7h-5zm9 0h5v7h-5zM30 29h4v7h-4zm0 15h4v7h-4zm14-2h5v7h-5zm8 0h4v7h-4zM17 55h8v12h-8zm29 0h6v12h-6z" fill="#ffac54"/><path d="M32 7V1M28 5h8" stroke="#151219" stroke-width="2"/><path d="M5 66h56" stroke="#151219" stroke-width="3"/></g></svg>
